<svg width="122" height="53" viewBox="0 0 122 53" fill="none" xmlns="http://www.w3.org/2000/svg">
<path d="M31.9093 1.09941V33.8018C31.9093 34.4075 31.4154 34.9012 30.81 34.9012H29.5187C28.913 34.9012 28.4193 34.4073 28.4193 33.8018V9.26804C28.4193 8.7665 28.0962 8.34176 27.6125 8.20828C27.1289 8.0748 26.6335 8.27334 26.3763 8.70423L16.2038 25.7273H15.7053L5.53306 8.70423C5.27559 8.27362 4.78048 8.0748 4.29682 8.20828C3.81316 8.34176 3.49007 8.7665 3.49007 9.26804V33.8018C3.49007 34.4075 2.99607 34.9012 2.39066 34.9012H1.0994C0.493711 34.9012 0 34.4073 0 33.8018V1.09941C0 0.493718 0.49399 0 1.0994 0H3.65594C4.05387 0 4.3954 0.193804 4.59953 0.535327L15.0111 17.9572C15.2152 18.2987 15.557 18.4925 15.955 18.4928C16.3529 18.4928 16.6947 18.299 16.8988 17.9572L27.3104 0.535327C27.5145 0.193804 27.856 0 28.254 0H30.8105C31.4162 0 31.9099 0.493997 31.9099 1.09941H31.9093Z" fill="#1B1C1E"/>
<path d="M108.521 6.42096C112.543 6.42096 115.795 7.84318 118.277 10.6876C120.742 13.512 121.983 16.8454 122 20.6876C122.002 21.1735 121.83 21.5924 121.488 21.9367C121.145 22.281 120.727 22.4547 120.241 22.4547H100.241C99.6513 22.4547 99.1448 22.7169 98.8044 23.198C98.4642 23.6789 98.3855 24.2441 98.5818 24.7995C99.1749 26.4784 100.16 27.8799 101.537 29.0039C103.511 30.6163 105.948 31.4225 108.847 31.4225C110.912 31.4225 112.697 30.9967 114.201 30.1452C115.228 29.5633 116.082 28.8584 116.763 28.0313C117.317 27.3586 118.26 27.1908 119.011 27.6314L119.064 27.6621C119.533 27.9369 119.824 28.3636 119.911 28.9C119.997 29.4365 119.854 29.9333 119.495 30.3413C118.488 31.487 117.275 32.4454 115.858 33.2159C113.793 34.339 111.438 34.9006 108.793 34.9006C104.517 34.9006 101.038 33.5599 98.357 30.8785C95.6756 28.1972 94.335 24.7912 94.335 20.6605C94.335 16.6021 95.6575 13.2143 98.3025 10.4966C100.948 7.77924 104.354 6.42041 108.521 6.42041L108.521 6.42096ZM108.521 9.8993C105.695 9.8993 103.33 10.7418 101.428 12.4268C100.114 13.5904 99.1679 14.992 98.5885 16.6309C98.3922 17.1863 98.4707 17.7515 98.8108 18.2327C99.1512 18.7138 99.6577 18.9761 100.247 18.9761H116.137C116.715 18.9761 117.213 18.7242 117.555 18.2584C117.898 17.7923 117.989 17.2425 117.816 16.6909C117.254 14.899 116.312 13.4324 114.989 12.2908C113.141 10.6966 110.985 9.8993 108.521 9.8993Z" fill="#1B1C1E"/>
<path d="M60.814 22.7958C60.5353 18.3169 62.0117 14.4697 65.1075 11.4172C71.1957 5.41442 80.9934 5.41889 87.0797 11.4189C98.3648 22.5433 85.8013 42.4734 69.9586 36.0652V51.2005C69.9586 52.1941 69.153 52.9998 68.1594 52.9998C67.1658 52.9998 66.3602 52.1941 66.3602 51.2005V33.1791H66.3669C66.3652 31.8108 67.8628 30.927 69.0661 31.6329C73.2297 34.0755 77.7477 34.5078 81.6829 32.1842C87.8354 28.5514 90.3103 19.6419 84.5637 13.9768C79.8739 9.35352 72.3116 9.35268 67.6235 13.9751C65.0265 16.5355 64.0541 19.6861 64.471 23.2032C64.6439 24.6626 64.6506 25.8022 64.3163 27.261C61.8249 38.1294 47.4446 42.0978 39.1026 33.7558C33.1258 27.779 33.1255 18.0896 39.1026 12.1128C45.1958 6.01955 55.0913 6.17202 61.0039 12.3837C61.6869 13.1016 61.6584 14.2376 60.9408 14.9206C60.2228 15.6037 59.0868 15.5752 58.4038 14.8573C53.881 10.1061 46.3014 10.0022 41.6468 14.6568C34.3581 21.9455 39.3503 34.801 50.3097 34.6405C53.3915 34.5466 56.0796 33.307 57.9947 31.4453C59.6861 29.8011 60.7657 27.674 60.9617 25.4383C61.0231 24.5338 60.8665 23.6187 60.8143 22.7958H60.814ZM43.1204 23.8184L49.2648 16.11C49.4348 15.8966 49.7479 15.8612 49.9612 16.0315L50.8766 16.7612C51.083 16.9257 51.124 17.2225 50.9704 17.437C48.3435 21.1058 49.0927 25.8857 52.305 28.9792C52.4898 29.1571 52.5088 29.4436 52.3491 29.6444L51.6574 30.5143C51.5689 30.6254 51.451 30.6882 51.3092 30.6997C51.1676 30.7111 51.0411 30.6681 50.9358 30.5721C48.9551 28.7678 47.6518 26.5983 47.1964 23.4906C47.1673 23.2909 47.0302 23.1365 46.8353 23.084C46.6404 23.0315 46.4443 23.0957 46.3187 23.2535L44.8007 25.158C44.6306 25.3713 44.3178 25.4068 44.1042 25.2364L43.1986 24.5146C42.9853 24.3445 42.9498 24.0317 43.1201 23.8184H43.1204ZM53.0235 21.2566L54.6981 22.5914C54.9115 22.7614 55.2242 22.726 55.3943 22.5126L56.1338 21.585C56.3038 21.3716 56.2684 21.0586 56.055 20.8885L52.0757 17.7165C51.9601 17.6246 51.8249 17.5903 51.6797 17.6163C51.5342 17.6422 51.4192 17.7213 51.3429 17.8475C49.0296 21.6665 49.4295 25.3593 52.659 28.3872C52.764 28.4855 52.8911 28.5305 53.0344 28.5198C53.1776 28.5092 53.2969 28.4464 53.3862 28.3336L54.0531 27.4933C54.2164 27.2881 54.1913 26.9918 53.9958 26.8167C52.3647 25.3534 51.8149 23.5855 52.229 21.5453C52.2645 21.3713 52.3784 21.239 52.5454 21.1784C52.7121 21.1178 52.8847 21.1457 53.0238 21.2566H53.0235Z" fill="#065DA7"/>
<path d="M38.2351 4.80646C37.7774 4.80646 37.3921 4.70397 37.0796 4.49928C36.7671 4.29459 36.5471 4.01618 36.4194 3.66404L37.1985 3.20859C37.3789 3.67968 37.7333 3.91509 38.2617 3.91509C38.5169 3.91509 38.704 3.86901 38.8229 3.77658C38.9419 3.68415 39.0011 3.56742 39.0011 3.42668C39.0011 3.26388 38.9285 3.13738 38.7833 3.04718C38.6381 2.95698 38.3784 2.85897 38.0042 2.75341C37.7973 2.6917 37.6224 2.63026 37.4792 2.56854C37.3362 2.50711 37.1932 2.42445 37.05 2.32085C36.907 2.21753 36.7981 2.08656 36.7233 1.92794C36.6484 1.76933 36.611 1.58446 36.611 1.37335C36.611 0.955313 36.7596 0.621893 37.0567 0.373081C37.3538 0.124269 37.7112 0 38.1296 0C38.5038 0 38.8327 0.0913165 39.1167 0.273946C39.4007 0.456576 39.6219 0.710974 39.7802 1.03658L39.0142 1.47891C38.8294 1.08265 38.5345 0.884663 38.1296 0.884663C37.9402 0.884663 37.7917 0.92767 37.6839 1.0134C37.5761 1.09913 37.5222 1.21055 37.5222 1.34682C37.5222 1.49203 37.5828 1.60988 37.7037 1.70008C37.8246 1.79028 38.057 1.88829 38.4002 1.99385C38.5409 2.03797 38.6478 2.07204 38.7205 2.09633C38.7931 2.12063 38.8922 2.15805 39.0176 2.20859C39.143 2.25914 39.2399 2.30661 39.3083 2.35045C39.3764 2.39458 39.4546 2.45377 39.5426 2.52889C39.6305 2.60373 39.6978 2.6808 39.7439 2.76011C39.7903 2.83914 39.8296 2.93492 39.8629 3.04718C39.8961 3.15944 39.9126 3.28147 39.9126 3.41355C39.9126 3.84053 39.7573 4.17954 39.4471 4.43031C39.1368 4.68108 38.733 4.80674 38.2354 4.80674L38.2351 4.80646ZM46.9893 3.84249H48.9371V4.71402H46.0784V0.0924335H48.9042V0.963972H46.9893V1.94777H48.7391V2.80619H46.9893V3.84277V3.84249ZM57.8564 0.0921539H58.7675V4.71375H58.0745L56.0937 1.88773V4.71375H55.1825V0.0921539H55.8745L57.8564 2.90812V0.0921539ZM67.066 0.0921539C67.6999 0.0921539 68.2291 0.314434 68.6538 0.759C69.0786 1.20357 69.2908 1.75146 69.2908 2.40295C69.2908 3.05444 69.0786 3.60233 68.6538 4.0469C68.2291 4.49147 67.6996 4.71375 67.066 4.71375H65.2305V0.0921539H67.066ZM67.066 3.84249C67.4665 3.84249 67.7924 3.70928 68.0431 3.44288C68.2939 3.17647 68.4196 2.82992 68.4196 2.40295C68.4196 1.97598 68.2942 1.62943 68.0431 1.36302C67.7924 1.09662 67.4665 0.963693 67.066 0.963693H66.1417V3.84249H67.066Z" fill="#1B1C1E"/>
</svg>
