<svg width="122" height="53" viewBox="0 0 122 53" fill="none" xmlns="http://www.w3.org/2000/svg">
<path d="M31.9093 1.09941V33.8018C31.9093 34.4075 31.4154 34.9012 30.81 34.9012H29.5187C28.913 34.9012 28.4193 34.4073 28.4193 33.8018V9.26804C28.4193 8.7665 28.0962 8.34176 27.6125 8.20828C27.1289 8.0748 26.6335 8.27334 26.3763 8.70423L16.2038 25.7273H15.7053L5.53306 8.70423C5.27559 8.27362 4.78048 8.0748 4.29682 8.20828C3.81316 8.34176 3.49007 8.7665 3.49007 9.26804V33.8018C3.49007 34.4075 2.99607 34.9012 2.39066 34.9012H1.0994C0.493711 34.9012 0 34.4073 0 33.8018V1.09941C0 0.493718 0.49399 0 1.0994 0H3.65594C4.05387 0 4.3954 0.193804 4.59953 0.535327L15.0111 17.9572C15.2152 18.2987 15.557 18.4925 15.955 18.4928C16.3529 18.4928 16.6947 18.299 16.8988 17.9572L27.3104 0.535327C27.5145 0.193804 27.856 0 28.254 0H30.8105C31.4162 0 31.9099 0.493997 31.9099 1.09941H31.9093Z" fill="#065DA7"/>
<path d="M108.521 6.42102C112.543 6.42102 115.795 7.84325 118.277 10.6877C120.742 13.512 121.983 16.8454 122 20.6876C122.002 21.1735 121.83 21.5924 121.488 21.9367C121.145 22.281 120.727 22.4547 120.241 22.4547H100.241C99.6513 22.4547 99.1448 22.7169 98.8044 23.1981C98.4642 23.679 98.3855 24.2442 98.5818 24.7996C99.1749 26.4785 100.16 27.88 101.537 29.004C103.511 30.6164 105.948 31.4226 108.847 31.4226C110.912 31.4226 112.697 30.9967 114.201 30.1453C115.228 29.5633 116.082 28.8585 116.763 28.0314C117.317 27.3586 118.26 27.1908 119.011 27.6315L119.064 27.6622C119.533 27.937 119.824 28.3637 119.911 28.9001C119.997 29.4365 119.854 29.9333 119.495 30.3413C118.488 31.4871 117.275 32.4455 115.858 33.2159C113.793 34.3391 111.438 34.9006 108.793 34.9006C104.517 34.9006 101.038 33.56 98.357 30.8786C95.6756 28.1972 94.335 24.7912 94.335 20.6606C94.335 16.6022 95.6575 13.2143 98.3025 10.4967C100.948 7.7793 104.354 6.42047 108.521 6.42047L108.521 6.42102ZM108.521 9.89937C105.695 9.89937 103.33 10.7419 101.428 12.4269C100.114 13.5905 99.1679 14.9921 98.5885 16.631C98.3922 17.1864 98.4707 17.7516 98.8108 18.2328C99.1512 18.7139 99.6577 18.9761 100.247 18.9761H116.137C116.715 18.9761 117.213 18.7242 117.555 18.2584C117.898 17.7924 117.989 17.2425 117.816 16.691C117.254 14.8991 116.312 13.4324 114.989 12.2909C113.141 10.6966 110.985 9.89937 108.521 9.89937Z" fill="#065DA7"/>
<path d="M60.814 22.796C60.5353 18.3171 62.0117 14.4699 65.1075 11.4174C71.1957 5.41466 80.9934 5.41913 87.0797 11.4191C98.3648 22.5436 85.8013 42.4737 69.9586 36.0654V51.2008C69.9586 52.1944 69.153 53 68.1594 53C67.1658 53 66.3602 52.1944 66.3602 51.2008V33.1794H66.3669C66.3652 31.8111 67.8628 30.9272 69.0661 31.6332C73.2297 34.0758 77.7477 34.5081 81.6829 32.1844C87.8354 28.5516 90.3103 19.6422 84.5637 13.977C79.8739 9.35376 72.3116 9.35292 67.6235 13.9753C65.0265 16.5358 64.0541 19.6863 64.471 23.2035C64.6439 24.6628 64.6506 25.8024 64.3163 27.2612C61.8249 38.1297 47.4446 42.0981 39.1026 33.756C33.1258 27.7792 33.1255 18.0898 39.1026 12.113C45.1958 6.01979 55.0913 6.17226 61.0039 12.3839C61.6869 13.1019 61.6584 14.2378 60.9408 14.9209C60.2228 15.6039 59.0868 15.5755 58.4038 14.8575C53.881 10.1063 46.3014 10.0025 41.6468 14.657C34.3581 21.9457 39.3503 34.8013 50.3097 34.6407C53.3915 34.5469 56.0796 33.3073 57.9947 31.4455C59.6861 29.8013 60.7657 27.6742 60.9617 25.4386C61.0231 24.5341 60.8665 23.619 60.8143 22.796H60.814ZM43.1204 23.8186L49.2648 16.1102C49.4348 15.8969 49.7479 15.8614 49.9612 16.0318L50.8766 16.7614C51.083 16.9259 51.124 17.2227 50.9704 17.4372C48.3435 21.106 49.0927 25.8859 52.305 28.9795C52.4898 29.1573 52.5088 29.4438 52.3491 29.6446L51.6574 30.5145C51.5689 30.6256 51.451 30.6885 51.3092 30.6999C51.1676 30.7114 51.0411 30.6684 50.9358 30.5723C48.9551 28.7681 47.6518 26.5986 47.1964 23.4908C47.1673 23.2911 47.0302 23.1367 46.8353 23.0842C46.6404 23.0317 46.4443 23.0959 46.3187 23.2537L44.8007 25.1582C44.6306 25.3716 44.3178 25.407 44.1042 25.2367L43.1986 24.5148C42.9853 24.3447 42.9498 24.032 43.1201 23.8186H43.1204ZM53.0235 21.2568L54.6981 22.5916C54.9115 22.7617 55.2242 22.7262 55.3943 22.5129L56.1338 21.5852C56.3038 21.3718 56.2684 21.0588 56.055 20.8887L52.0757 17.7167C51.9601 17.6249 51.8249 17.5905 51.6797 17.6165C51.5342 17.6425 51.4192 17.7215 51.3429 17.8477C49.0296 21.6667 49.4295 25.3595 52.659 28.3874C52.764 28.4857 52.8911 28.5307 53.0344 28.5201C53.1776 28.5095 53.2969 28.4466 53.3862 28.3338L54.0531 27.4936C54.2164 27.2883 54.1913 26.992 53.9958 26.8169C52.3647 25.3537 51.8149 23.5857 52.229 21.5455C52.2645 21.3716 52.3784 21.2392 52.5454 21.1786C52.7121 21.118 52.8847 21.1459 53.0238 21.2568H53.0235Z" fill="#FE9800"/>
<path d="M38.2351 4.80646C37.7774 4.80646 37.3921 4.70397 37.0796 4.49928C36.7671 4.29459 36.5471 4.01618 36.4194 3.66404L37.1985 3.20859C37.3789 3.67968 37.7333 3.91509 38.2617 3.91509C38.5169 3.91509 38.704 3.86901 38.8229 3.77658C38.9419 3.68415 39.0011 3.56742 39.0011 3.42668C39.0011 3.26388 38.9285 3.13738 38.7833 3.04718C38.6381 2.95698 38.3784 2.85897 38.0042 2.75341C37.7973 2.6917 37.6224 2.63026 37.4792 2.56854C37.3362 2.50711 37.1932 2.42445 37.05 2.32085C36.907 2.21753 36.7981 2.08656 36.7233 1.92794C36.6484 1.76933 36.611 1.58446 36.611 1.37335C36.611 0.955313 36.7596 0.621893 37.0567 0.373081C37.3538 0.124269 37.7112 0 38.1296 0C38.5038 0 38.8327 0.0913165 39.1167 0.273946C39.4007 0.456576 39.6219 0.710974 39.7802 1.03658L39.0142 1.47891C38.8294 1.08265 38.5345 0.884663 38.1296 0.884663C37.9402 0.884663 37.7917 0.92767 37.6839 1.0134C37.5761 1.09913 37.5222 1.21055 37.5222 1.34682C37.5222 1.49203 37.5828 1.60988 37.7037 1.70008C37.8246 1.79028 38.057 1.88829 38.4002 1.99385C38.5409 2.03797 38.6478 2.07204 38.7205 2.09633C38.7931 2.12063 38.8922 2.15805 39.0176 2.20859C39.143 2.25914 39.2399 2.30661 39.3083 2.35045C39.3764 2.39458 39.4546 2.45377 39.5426 2.52889C39.6305 2.60373 39.6978 2.6808 39.7439 2.76011C39.7903 2.83914 39.8296 2.93492 39.8629 3.04718C39.8961 3.15944 39.9126 3.28147 39.9126 3.41355C39.9126 3.84053 39.7573 4.17954 39.4471 4.43031C39.1368 4.68108 38.733 4.80674 38.2354 4.80674L38.2351 4.80646ZM46.9893 3.84249H48.9371V4.71402H46.0784V0.0924335H48.9042V0.963972H46.9893V1.94777H48.7391V2.80619H46.9893V3.84277V3.84249ZM57.8564 0.0921539H58.7675V4.71375H58.0745L56.0937 1.88773V4.71375H55.1825V0.0921539H55.8745L57.8564 2.90812V0.0921539ZM67.066 0.0921539C67.6999 0.0921539 68.2291 0.314434 68.6538 0.759C69.0786 1.20357 69.2908 1.75146 69.2908 2.40295C69.2908 3.05444 69.0786 3.60233 68.6538 4.0469C68.2291 4.49147 67.6996 4.71375 67.066 4.71375H65.2305V0.0921539H67.066ZM67.066 3.84249C67.4665 3.84249 67.7924 3.70928 68.0431 3.44288C68.2939 3.17647 68.4196 2.82992 68.4196 2.40295C68.4196 1.97598 68.2942 1.62943 68.0431 1.36302C67.7924 1.09662 67.4665 0.963693 67.066 0.963693H66.1417V3.84249H67.066Z" fill="#065DA7"/>
</svg>
