<svg width="145" height="42" viewBox="0 0 145 42" fill="none" xmlns="http://www.w3.org/2000/svg">
<path d="M11.1837 14.4814H6.90378V22.7947C6.90378 23.5106 7.06458 24.0241 7.38714 24.3363C7.70922 24.648 8.18644 24.821 8.81929 24.8559C9.45214 24.8908 10.2401 24.8847 11.1837 24.8385V28.1984C8.33027 28.545 6.28225 28.2965 5.03966 27.4538C3.79708 26.6111 3.17555 25.0582 3.17555 22.7952V14.4819H0V10.8796H3.17555V7.13862L6.90378 6.03043V10.8796H11.1837V14.4819V14.4814ZM22.0157 10.4288C23.9944 10.4288 25.594 11.064 26.8134 12.3339C28.0329 13.6038 28.6427 15.3477 28.6427 17.5641V28.198H24.9144V17.9451C24.9144 16.6521 24.5697 15.6589 23.8789 14.9662C23.1885 14.2735 22.2453 13.9269 21.0485 13.9269C19.7371 13.9269 18.6784 14.3367 17.8729 15.1567C17.0675 15.9763 16.6648 17.2288 16.6648 18.9146V28.1975H12.937V3.95128H16.6648V13.0955C17.7923 11.3177 19.5758 10.4283 22.0147 10.4283L22.0157 10.4288ZM34.7457 13.7887C35.6888 11.6412 37.461 10.5674 40.0612 10.5674V14.6201C38.6347 14.5276 37.3917 14.8681 36.3335 15.642C35.2753 16.4158 34.7457 17.6914 34.7457 19.4697V28.1984H31.0179V10.8796H34.7457V13.7892V13.7887ZM44.7317 7.57104C44.2601 8.0445 43.7022 8.28123 43.0576 8.28123C42.4134 8.28123 41.8551 8.0445 41.3835 7.57104C40.9119 7.09759 40.6762 6.53783 40.6762 5.89131C40.6762 5.24479 40.9063 4.68457 41.3665 4.21112C41.8268 3.73766 42.3903 3.50093 43.0576 3.50093C43.7248 3.50093 44.2889 3.73766 44.7491 4.21112C45.2094 4.68457 45.4395 5.24432 45.4395 5.89131C45.4395 6.53783 45.2037 7.09806 44.7321 7.57104H44.7317ZM41.1939 28.198V10.8791H44.9217V28.198H41.1939ZM56.6855 10.4288C58.6642 10.4288 60.2637 11.064 61.4832 12.3339C62.7027 13.6038 63.3124 15.3477 63.3124 17.5641V28.198H59.5842V17.9451C59.5842 16.6521 59.2395 15.6589 58.5486 14.9662C57.8583 14.2735 56.9151 13.9269 55.7183 13.9269C54.4068 13.9269 53.3482 14.3367 52.5427 15.1567C51.7373 15.9763 51.3346 17.2288 51.3346 18.9146V28.1975H47.6068V10.8786H51.3346V13.0955C52.4621 11.3177 54.2456 10.4283 56.6845 10.4283L56.6855 10.4288ZM79.3566 3.95175H83.0844V28.198H79.3566V25.7038C77.9528 27.6665 75.9396 28.6478 73.3163 28.6478C70.9462 28.6478 68.9213 27.7646 67.2411 25.9981C65.5613 24.2316 64.7215 22.0784 64.7215 19.5381C64.7215 16.9751 65.5613 14.8158 67.2411 13.0611C68.9208 11.3059 70.9457 10.4288 73.3163 10.4288C75.9396 10.4288 77.9528 11.3988 79.3566 13.3383V3.95128V3.95175ZM70.0026 23.5044C71.0382 24.5551 72.3383 25.0804 73.9029 25.0804C75.4676 25.0804 76.7677 24.5551 77.8033 23.5044C78.8389 22.4538 79.3566 21.132 79.3566 19.5385C79.3566 17.9451 78.8389 16.6233 77.8033 15.5726C76.7677 14.522 75.4676 13.9966 73.9029 13.9966C72.3378 13.9966 71.0382 14.522 70.0026 15.5726C68.967 16.6233 68.4492 17.9451 68.4492 19.5385C68.4492 21.132 68.967 22.4538 70.0026 23.5044ZM85.8044 28.198V2.91241H89.5322V28.198H85.8044ZM95.1518 21.132C95.4277 22.4481 96.061 23.4582 97.0504 24.1627C98.0397 24.8668 99.2479 25.2191 100.674 25.2191C102.653 25.2191 104.138 24.5032 105.127 23.0715L108.199 24.8729C106.496 27.3897 103.977 28.6483 100.64 28.6483C97.8327 28.6483 95.5664 27.7882 93.8399 26.0679C92.1145 24.3476 91.2515 22.1713 91.2515 19.5385C91.2515 16.9524 92.1031 14.7875 93.806 13.0441C95.5088 11.3007 97.695 10.4288 100.364 10.4288C102.895 10.4288 104.972 11.3177 106.594 13.0959C108.217 14.8738 109.028 17.0331 109.028 19.573C109.028 19.9653 108.982 20.485 108.89 21.1315H95.1518V21.132ZM95.1174 18.0837H105.266C105.012 16.6752 104.431 15.6132 103.523 14.8973C102.613 14.1815 101.55 13.8236 100.33 13.8236C98.9494 13.8236 97.7988 14.2046 96.8783 14.9667C95.9578 15.7287 95.3711 16.7681 95.1179 18.0842L95.1174 18.0837Z" fill="white"/>
<path d="M63.5622 33.8913C64.5011 33.8913 65.3018 34.2479 65.9644 34.9613C66.6269 35.6744 66.9585 36.5472 66.9585 37.5795C66.9585 38.6118 66.6269 39.4842 65.9644 40.1976C65.3018 40.9107 64.5011 41.2676 63.5622 41.2676C62.3951 41.2676 61.5085 40.7517 60.903 39.7195V41.0988H60.0339V31.2458H60.903V35.4404C61.5085 34.4082 62.3951 33.8923 63.5622 33.8923V33.8913ZM61.6533 39.5568C62.1536 40.0963 62.7681 40.3665 63.4962 40.3665C64.2248 40.3665 64.8392 40.0967 65.3391 39.5568C65.8394 39.0173 66.0894 38.3581 66.0894 37.5795C66.0894 36.8005 65.8394 36.1412 65.3391 35.6017C64.8388 35.0623 64.2248 34.792 63.4962 34.792C62.7681 34.792 62.1536 35.0618 61.6533 35.6017C61.153 36.1412 60.903 36.8005 60.903 37.5795C60.903 38.3585 61.153 39.0173 61.6533 39.5568ZM72.4904 34.0602H73.3591V41.0979H72.4904V40.0001C71.9986 40.8446 71.2615 41.2667 70.2788 41.2667C69.4799 41.2667 68.8504 41.0064 68.3897 40.4853C67.9289 39.9647 67.6988 39.263 67.6988 38.3812V34.0602H68.5679V38.3812C68.5679 39.0098 68.7235 39.4978 69.0353 39.8449C69.347 40.192 69.7879 40.3655 70.3585 40.3655C70.9904 40.3655 71.5034 40.1519 71.8986 39.7251C72.2933 39.2979 72.4909 38.6391 72.4909 37.7474V34.0597L72.4904 34.0602ZM75.3364 35.8851C75.3364 36.1997 75.4703 36.4482 75.7358 36.6335C76.0036 36.8165 76.3262 36.9669 76.7034 37.0815C77.0807 37.1989 77.4579 37.314 77.8357 37.4286C78.2129 37.5437 78.5312 37.7526 78.7901 38.0525C79.0514 38.3552 79.1806 38.7513 79.1806 39.2394C79.1806 39.8397 78.959 40.3278 78.5157 40.7032C78.0724 41.0785 77.4999 41.2662 76.7978 41.2662C76.1658 41.2662 75.6283 41.1158 75.185 40.8159C74.7417 40.5155 74.4324 40.126 74.2569 39.6473L74.994 39.1828C75.1171 39.5488 75.3383 39.8374 75.6589 40.0486C75.9796 40.2599 76.3587 40.3655 76.7978 40.3655C77.2274 40.3655 77.5876 40.274 77.8772 40.0911C78.1667 39.9081 78.3115 39.6242 78.3115 39.2394C78.3115 38.9202 78.1799 38.6693 77.9168 38.4816C77.6537 38.2939 77.3335 38.1416 76.9557 38.0265C76.5785 37.9115 76.2012 37.7969 75.8235 37.6818C75.4462 37.5668 75.1256 37.3607 74.8624 37.065C74.5993 36.7693 74.4677 36.3822 74.4677 35.904C74.4677 35.3315 74.6804 34.8529 75.1062 34.4685C75.5316 34.0837 76.0697 33.8913 76.719 33.8913C77.2542 33.8913 77.7239 34.0206 78.1276 34.2785C78.5312 34.5365 78.8297 34.8864 79.0226 35.3273L78.2988 35.7776C78.0446 35.1207 77.5178 34.7925 76.719 34.7925C76.3417 34.7925 76.0168 34.8864 75.7447 35.0764C75.4726 35.2664 75.3364 35.5362 75.3364 35.8861V35.8851ZM80.8948 32.371C80.7717 32.5026 80.6227 32.5681 80.4468 32.5681C80.2713 32.5681 80.1219 32.5026 79.9992 32.371C79.8766 32.2399 79.8149 32.08 79.8149 31.8924C79.8149 31.7047 79.8762 31.5453 79.9992 31.4137C80.1223 31.2822 80.2713 31.2166 80.4468 31.2166C80.6222 31.2166 80.7717 31.2822 80.8948 31.4137C81.0174 31.5453 81.0791 31.7047 81.0791 31.8924C81.0791 32.08 81.0178 32.2394 80.8948 32.371ZM80.0124 41.0979V34.0602H80.8815V41.0979H80.0124ZM85.2549 33.8913C86.0537 33.8913 86.6833 34.1517 87.144 34.6727C87.6047 35.1934 87.8353 35.895 87.8353 36.7769V41.0979H86.9662V36.7769C86.9662 36.1483 86.8106 35.6602 86.4989 35.3131C86.1872 34.9661 85.7462 34.7925 85.1756 34.7925C84.5437 34.7925 84.0302 35.0061 83.635 35.4329C83.2403 35.8602 83.0427 36.5189 83.0427 37.4107V41.0983H82.1736V34.0606H83.0427V35.1585C83.5341 34.3139 84.2717 33.8918 85.2544 33.8918L85.2549 33.8913ZM92.0111 33.8913C92.9848 33.8913 93.7728 34.2596 94.3741 34.9962C94.9753 35.7328 95.2757 36.6029 95.2757 37.6073C95.2757 37.7106 95.2668 37.8563 95.2493 38.0435H89.4702C89.5579 38.757 89.8409 39.3219 90.3191 39.7397C90.7972 40.1571 91.3876 40.366 92.0898 40.366C92.5901 40.366 93.0226 40.2556 93.3866 40.035C93.7507 39.8143 94.0251 39.5257 94.209 39.1692L94.9725 39.6478C94.683 40.1453 94.2878 40.5395 93.7875 40.83C93.2871 41.121 92.717 41.2662 92.0761 41.2662C91.0406 41.2662 90.1979 40.9191 89.5485 40.2245C88.8992 39.5299 88.5743 38.6481 88.5743 37.5785C88.5743 36.5274 88.8945 35.6503 89.5353 34.9462C90.1762 34.2427 91.001 33.8904 92.0101 33.8904L92.0111 33.8913ZM92.0111 34.792C91.3263 34.792 90.7538 35.0104 90.2931 35.4466C89.8324 35.8828 89.5579 36.4482 89.4707 37.1423H94.3812C94.2934 36.401 94.0256 35.8238 93.5781 35.4112C93.1306 34.9981 92.6081 34.792 92.0115 34.792H92.0111ZM96.5292 35.8856C96.5292 36.2002 96.6631 36.4487 96.9286 36.634C97.1964 36.817 97.519 36.9674 97.8962 37.082C98.274 37.1994 98.6512 37.3145 99.0285 37.4291C99.4062 37.5441 99.724 37.753 99.9829 38.0529C100.244 38.3557 100.373 38.7518 100.373 39.2399C100.373 39.8402 100.152 40.3283 99.7085 40.7036C99.2652 41.079 98.6927 41.2667 97.9905 41.2667C97.3586 41.2667 96.8211 41.1163 96.3778 40.8163C95.9345 40.5159 95.6252 40.1264 95.4497 39.6478L96.1868 39.1833C96.3099 39.5492 96.5315 39.8378 96.8517 40.0491C97.1724 40.2604 97.552 40.366 97.9905 40.366C98.4206 40.366 98.7804 40.2745 99.07 40.0915C99.3595 39.9086 99.5043 39.6247 99.5043 39.2399C99.5043 38.9206 99.3727 38.6698 99.1096 38.4821C98.8465 38.2944 98.5258 38.1421 98.1485 38.027C97.7713 37.9119 97.394 37.7974 97.0163 37.6823C96.639 37.5672 96.3184 37.3612 96.0552 37.0655C95.7921 36.7698 95.6605 36.3826 95.6605 35.9045C95.6605 35.332 95.8732 34.8533 96.299 34.469C96.7249 34.0842 97.2624 33.8918 97.9118 33.8918C98.447 33.8918 98.9167 34.021 99.3204 34.279C99.724 34.5369 100.023 34.8868 100.215 35.3277L99.4916 35.7781C99.2374 35.1212 98.7106 34.793 97.9118 34.793C97.5345 34.793 97.2096 34.8868 96.938 35.0769C96.6659 35.2669 96.5296 35.5367 96.5296 35.8866L96.5292 35.8856ZM101.56 35.8856C101.56 36.2002 101.694 36.4487 101.96 36.634C102.228 36.817 102.55 36.9674 102.927 37.082C103.305 37.1994 103.682 37.3145 104.06 37.4291C104.437 37.5441 104.755 37.753 105.014 38.0529C105.275 38.3557 105.405 38.7518 105.405 39.2399C105.405 39.8402 105.183 40.3283 104.74 40.7036C104.297 41.079 103.724 41.2667 103.022 41.2667C102.39 41.2667 101.852 41.1163 101.409 40.8163C100.966 40.5159 100.656 40.1264 100.481 39.6478L101.218 39.1833C101.341 39.5492 101.563 39.8378 101.883 40.0491C102.204 40.2604 102.583 40.366 103.022 40.366C103.451 40.366 103.812 40.2745 104.101 40.0915C104.391 39.9086 104.536 39.6247 104.536 39.2399C104.536 38.9206 104.404 38.6698 104.141 38.4821C103.878 38.2944 103.557 38.1421 103.18 38.027C102.803 37.9119 102.426 37.7974 102.048 37.6823C101.671 37.5672 101.35 37.3612 101.087 37.0655C100.824 36.7698 100.692 36.3826 100.692 35.9045C100.692 35.332 100.905 34.8533 101.331 34.469C101.757 34.0842 102.294 33.8918 102.943 33.8918C103.479 33.8918 103.948 34.021 104.352 34.279C104.756 34.5369 105.054 34.8868 105.247 35.3277L104.523 35.7781C104.269 35.1212 103.742 34.793 102.943 34.793C102.566 34.793 102.241 34.8868 101.969 35.0769C101.697 35.2669 101.56 35.5367 101.56 35.8866V35.8856Z" fill="white"/>
<path fill-rule="evenodd" clip-rule="evenodd" d="M115.949 17.5317L130.098 1.1051C130.49 0.650036 131.18 0.598635 131.636 0.990509L133.586 2.67071C134.026 3.04985 134.092 3.70533 133.736 4.16417C127.656 12.0073 128.902 22.5752 135.702 29.6431C136.094 30.0491 136.111 30.681 135.743 31.1092L134.15 32.9629C133.947 33.2001 133.682 33.3279 133.37 33.3411C133.057 33.3538 132.783 33.2487 132.56 33.0294C128.358 28.8985 125.675 24.0205 124.935 17.1526C124.888 16.7112 124.6 16.3604 124.175 16.2288C123.752 16.0968 123.315 16.2217 123.026 16.558L119.53 20.6163C119.138 21.0713 118.448 21.1227 117.993 20.7309L116.063 19.0691C115.609 18.6772 115.557 17.9868 115.949 17.5322V17.5317ZM137.928 12.7312L141.497 15.8053C141.952 16.1972 142.642 16.1458 143.034 15.6907L144.737 13.7144C145.129 13.2598 145.077 12.5689 144.622 12.1775L136.141 4.87247C135.895 4.66073 135.601 4.57396 135.279 4.61876C134.958 4.66356 134.698 4.82767 134.52 5.09882C129.116 13.2989 129.686 21.4481 136.529 28.3727C136.752 28.5971 137.027 28.7065 137.343 28.6957C137.659 28.6848 137.927 28.5561 138.132 28.3161L139.668 26.5255C140.044 26.0874 140.014 25.4348 139.599 25.033C136.137 21.6806 135.077 17.7487 136.157 13.2999C136.25 12.9207 136.512 12.6387 136.883 12.5199C137.255 12.4001 137.632 12.4765 137.928 12.7316V12.7312Z" fill="#FE9800"/>
</svg>
