<svg width="145" height="42" viewBox="0 0 145 42" fill="none" xmlns="http://www.w3.org/2000/svg">
<path d="M11.1837 14.4811H6.90378V22.7944C6.90378 23.5103 7.06458 24.0238 7.38714 24.336C7.70922 24.6477 8.18644 24.8207 8.81929 24.8556C9.45214 24.8905 10.2401 24.8844 11.1837 24.8382V28.1981C8.33027 28.5447 6.28225 28.2962 5.03966 27.4535C3.79708 26.6108 3.17555 25.0579 3.17555 22.7949V14.4816H0V10.8793H3.17555V7.13831L6.90378 6.03012V10.8793H11.1837V14.4816V14.4811ZM22.0157 10.4285C23.9944 10.4285 25.594 11.0637 26.8134 12.3336C28.0329 13.6035 28.6427 15.3474 28.6427 17.5638V28.1976H24.9144V17.9448C24.9144 16.6518 24.5697 15.6586 23.8789 14.9659C23.1885 14.2732 22.2453 13.9265 21.0485 13.9265C19.7371 13.9265 18.6784 14.3363 17.8729 15.1564C17.0675 15.976 16.6648 17.2285 16.6648 18.9143V28.1972H12.937V3.95097H16.6648V13.0952C17.7923 11.3174 19.5758 10.428 22.0147 10.428L22.0157 10.4285ZM34.7457 13.7884C35.6888 11.6409 37.461 10.5671 40.0612 10.5671V14.6198C38.6347 14.5273 37.3917 14.8678 36.3335 15.6416C35.2753 16.4155 34.7457 17.6911 34.7457 19.4694V28.1981H31.0179V10.8793H34.7457V13.7889V13.7884ZM44.7317 7.57074C44.2601 8.04419 43.7022 8.28092 43.0576 8.28092C42.4134 8.28092 41.8551 8.04419 41.3835 7.57074C40.9119 7.09728 40.6762 6.53753 40.6762 5.89101C40.6762 5.24449 40.9063 4.68427 41.3665 4.21081C41.8268 3.73735 42.3903 3.50063 43.0576 3.50063C43.7248 3.50063 44.2889 3.73735 44.7491 4.21081C45.2094 4.68427 45.4395 5.24402 45.4395 5.89101C45.4395 6.53753 45.2037 7.09775 44.7321 7.57074H44.7317ZM41.1939 28.1976V10.8788H44.9217V28.1976H41.1939ZM56.6855 10.4285C58.6642 10.4285 60.2637 11.0637 61.4832 12.3336C62.7027 13.6035 63.3124 15.3474 63.3124 17.5638V28.1976H59.5842V17.9448C59.5842 16.6518 59.2395 15.6586 58.5486 14.9659C57.8583 14.2732 56.9151 13.9265 55.7183 13.9265C54.4068 13.9265 53.3482 14.3363 52.5427 15.1564C51.7373 15.976 51.3346 17.2285 51.3346 18.9143V28.1972H47.6068V10.8783H51.3346V13.0952C52.4621 11.3174 54.2456 10.428 56.6845 10.428L56.6855 10.4285ZM79.3566 3.95145H83.0844V28.1976H79.3566V25.7035C77.9528 27.6662 75.9396 28.6475 73.3163 28.6475C70.9462 28.6475 68.9213 27.7643 67.2411 25.9978C65.5613 24.2313 64.7215 22.0781 64.7215 19.5378C64.7215 16.9748 65.5613 14.8155 67.2411 13.0607C68.9208 11.3056 70.9457 10.4285 73.3163 10.4285C75.9396 10.4285 77.9528 11.3985 79.3566 13.338V3.95097V3.95145ZM70.0026 23.5041C71.0382 24.5548 72.3383 25.0801 73.9029 25.0801C75.4676 25.0801 76.7677 24.5548 77.8033 23.5041C78.8389 22.4535 79.3566 21.1317 79.3566 19.5382C79.3566 17.9448 78.8389 16.623 77.8033 15.5723C76.7677 14.5217 75.4676 13.9963 73.9029 13.9963C72.3378 13.9963 71.0382 14.5217 70.0026 15.5723C68.967 16.623 68.4492 17.9448 68.4492 19.5382C68.4492 21.1317 68.967 22.4535 70.0026 23.5041ZM85.8044 28.1976V2.91211H89.5322V28.1976H85.8044ZM95.1518 21.1317C95.4277 22.4478 96.061 23.4579 97.0504 24.1624C98.0397 24.8665 99.2479 25.2187 100.674 25.2187C102.653 25.2187 104.138 24.5029 105.127 23.0712L108.199 24.8726C106.496 27.3894 103.977 28.648 100.64 28.648C97.8327 28.648 95.5664 27.7879 93.8399 26.0676C92.1145 24.3473 91.2515 22.171 91.2515 19.5382C91.2515 16.9521 92.1031 14.7872 93.806 13.0438C95.5088 11.3004 97.695 10.4285 100.364 10.4285C102.895 10.4285 104.972 11.3174 106.594 13.0956C108.217 14.8735 109.028 17.0328 109.028 19.5726C109.028 19.965 108.982 20.4847 108.89 21.1312H95.1518V21.1317ZM95.1174 18.0834H105.266C105.012 16.6749 104.431 15.6129 103.523 14.897C102.613 14.1812 101.55 13.8233 100.33 13.8233C98.9494 13.8233 97.7988 14.2043 96.8783 14.9664C95.9578 15.7284 95.3711 16.7678 95.1179 18.0839L95.1174 18.0834Z" fill="#065DA7"/>
<path d="M63.5625 33.891C64.5014 33.891 65.3021 34.2476 65.9646 34.961C66.6272 35.6741 66.9587 36.5469 66.9587 37.5792C66.9587 38.6115 66.6272 39.4839 65.9646 40.1973C65.3021 40.9104 64.5014 41.2673 63.5625 41.2673C62.3953 41.2673 61.5088 40.7514 60.9033 39.7192V41.0985H60.0342V31.2455H60.9033V35.4402C61.5088 34.4079 62.3953 33.892 63.5625 33.892V33.891ZM61.6536 39.5565C62.1539 40.096 62.7683 40.3662 63.4964 40.3662C64.225 40.3662 64.8395 40.0964 65.3393 39.5565C65.8397 39.017 66.0896 38.3578 66.0896 37.5792C66.0896 36.8002 65.8397 36.1409 65.3393 35.6014C64.839 35.062 64.225 34.7917 63.4964 34.7917C62.7683 34.7917 62.1539 35.0615 61.6536 35.6014C61.1532 36.1409 60.9033 36.8002 60.9033 37.5792C60.9033 38.3582 61.1532 39.017 61.6536 39.5565ZM72.4907 34.0599H73.3593V41.0976H72.4907V39.9998C71.9988 40.8443 71.2618 41.2664 70.279 41.2664C69.4802 41.2664 68.8506 41.0061 68.3899 40.485C67.9292 39.9644 67.6991 39.2627 67.6991 38.3809V34.0599H68.5682V38.3809C68.5682 39.0095 68.7238 39.4975 69.0355 39.8446C69.3472 40.1917 69.7881 40.3652 70.3587 40.3652C70.9906 40.3652 71.5037 40.1516 71.8989 39.7248C72.2936 39.2976 72.4911 38.6388 72.4911 37.7471V34.0594L72.4907 34.0599ZM75.3366 35.8848C75.3366 36.1994 75.4705 36.4479 75.736 36.6332C76.0039 36.8162 76.3264 36.9666 76.7037 37.0812C77.0809 37.1986 77.4582 37.3137 77.8359 37.4283C78.2132 37.5434 78.5315 37.7523 78.7904 38.0522C79.0516 38.3549 79.1808 38.751 79.1808 39.2391C79.1808 39.8394 78.9592 40.3275 78.5159 40.7029C78.0726 41.0782 77.5002 41.2659 76.798 41.2659C76.1661 41.2659 75.6285 41.1155 75.1852 40.8156C74.742 40.5152 74.4326 40.1257 74.2572 39.647L74.9942 39.1825C75.1173 39.5485 75.3385 39.8371 75.6592 40.0483C75.9798 40.2596 76.359 40.3652 76.798 40.3652C77.2276 40.3652 77.5879 40.2737 77.8774 40.0908C78.167 39.9078 78.3117 39.6239 78.3117 39.2391C78.3117 38.9199 78.1802 38.669 77.917 38.4813C77.6539 38.2936 77.3337 38.1413 76.956 38.0262C76.5787 37.9112 76.2015 37.7966 75.8237 37.6815C75.4465 37.5665 75.1258 37.3604 74.8627 37.0647C74.5995 36.769 74.468 36.3819 74.468 35.9037C74.468 35.3312 74.6807 34.8526 75.1065 34.4682C75.5318 34.0834 76.0699 33.891 76.7192 33.891C77.2545 33.891 77.7242 34.0203 78.1278 34.2782C78.5315 34.5362 78.83 34.8861 79.0229 35.327L78.299 35.7773C78.0448 35.1204 77.5181 34.7922 76.7192 34.7922C76.342 34.7922 76.0171 34.8861 75.745 35.0761C75.4729 35.2661 75.3366 35.5359 75.3366 35.8858V35.8848ZM80.895 32.3707C80.7719 32.5023 80.6229 32.5678 80.447 32.5678C80.2716 32.5678 80.1221 32.5023 79.9995 32.3707C79.8769 32.2396 79.8151 32.0797 79.8151 31.8921C79.8151 31.7044 79.8764 31.545 79.9995 31.4134C80.1226 31.2819 80.2716 31.2163 80.447 31.2163C80.6224 31.2163 80.7719 31.2819 80.895 31.4134C81.0176 31.545 81.0794 31.7044 81.0794 31.8921C81.0794 32.0797 81.0181 32.2391 80.895 32.3707ZM80.0127 41.0976V34.0599H80.8818V41.0976H80.0127ZM85.2551 33.891C86.054 33.891 86.6835 34.1514 87.1442 34.6724C87.605 35.1931 87.8356 35.8947 87.8356 36.7766V41.0976H86.9665V36.7766C86.9665 36.148 86.8108 35.6599 86.4991 35.3128C86.1874 34.9658 85.7465 34.7922 85.1759 34.7922C84.544 34.7922 84.0305 35.0058 83.6353 35.4326C83.2406 35.8599 83.043 36.5186 83.043 37.4104V41.098H82.1739V34.0603H83.043V35.1582C83.5344 34.3136 84.2719 33.8915 85.2547 33.8915L85.2551 33.891ZM92.0113 33.891C92.9851 33.891 93.7731 34.2593 94.3743 34.9959C94.9756 35.7325 95.276 36.6026 95.276 37.607C95.276 37.7103 95.267 37.856 95.2496 38.0432H89.4705C89.5582 38.7567 89.8411 39.3216 90.3193 39.7395C90.7975 40.1568 91.3879 40.3657 92.09 40.3657C92.5904 40.3657 93.0228 40.2553 93.3869 40.0347C93.7509 39.814 94.0254 39.5254 94.2093 39.1689L94.9727 39.6475C94.6832 40.145 94.288 40.5392 93.7877 40.8297C93.2874 41.1207 92.7172 41.2659 92.0764 41.2659C91.0408 41.2659 90.1981 40.9188 89.5488 40.2242C88.8994 39.5296 88.5745 38.6478 88.5745 37.5783C88.5745 36.5271 88.8947 35.65 89.5356 34.9459C90.1764 34.2424 91.0012 33.8901 92.0104 33.8901L92.0113 33.891ZM92.0113 34.7917C91.3266 34.7917 90.7541 35.0101 90.2934 35.4463C89.8326 35.8825 89.5582 36.4479 89.4709 37.142H94.3814C94.2937 36.4007 94.0258 35.8235 93.5783 35.4109C93.1308 34.9978 92.6083 34.7917 92.0118 34.7917H92.0113ZM96.5294 35.8853C96.5294 36.1999 96.6633 36.4484 96.9288 36.6337C97.1967 36.8167 97.5192 36.9671 97.8965 37.0817C98.2742 37.1991 98.6515 37.3142 99.0287 37.4288C99.4064 37.5438 99.7243 37.7527 99.9832 38.0526C100.244 38.3554 100.374 38.7515 100.374 39.2396C100.374 39.8399 100.152 40.328 99.7087 40.7033C99.2654 41.0787 98.693 41.2664 97.9908 41.2664C97.3589 41.2664 96.8213 41.116 96.378 40.816C95.9347 40.5157 95.6254 40.1261 95.45 39.6475L96.187 39.183C96.3101 39.5489 96.5318 39.8375 96.852 40.0488C97.1726 40.2601 97.5522 40.3657 97.9908 40.3657C98.4209 40.3657 98.7807 40.2742 99.0702 40.0912C99.3598 39.9083 99.5045 39.6244 99.5045 39.2396C99.5045 38.9203 99.373 38.6695 99.1098 38.4818C98.8467 38.2941 98.526 38.1418 98.1488 38.0267C97.7715 37.9117 97.3943 37.7971 97.0165 37.682C96.6393 37.5669 96.3186 37.3609 96.0555 37.0652C95.7923 36.7695 95.6608 36.3824 95.6608 35.9042C95.6608 35.3317 95.8734 34.853 96.2993 34.4687C96.7251 34.0839 97.2627 33.8915 97.912 33.8915C98.4473 33.8915 98.917 34.0207 99.3206 34.2787C99.7243 34.5366 100.023 34.8865 100.216 35.3275L99.4918 35.7778C99.2376 35.1209 98.7109 34.7927 97.912 34.7927C97.5348 34.7927 97.2099 34.8865 96.9383 35.0766C96.6662 35.2666 96.5299 35.5364 96.5299 35.8863L96.5294 35.8853ZM101.561 35.8853C101.561 36.1999 101.694 36.4484 101.96 36.6337C102.228 36.8167 102.55 36.9671 102.928 37.0817C103.305 37.1991 103.683 37.3142 104.06 37.4288C104.437 37.5438 104.755 37.7527 105.014 38.0526C105.276 38.3554 105.405 38.7515 105.405 39.2396C105.405 39.8399 105.183 40.328 104.74 40.7033C104.297 41.0787 103.724 41.2664 103.022 41.2664C102.39 41.2664 101.852 41.116 101.409 40.816C100.966 40.5157 100.657 40.1261 100.481 39.6475L101.218 39.183C101.341 39.5489 101.563 39.8375 101.883 40.0488C102.204 40.2601 102.583 40.3657 103.022 40.3657C103.452 40.3657 103.812 40.2742 104.101 40.0912C104.391 39.9083 104.536 39.6244 104.536 39.2396C104.536 38.9203 104.405 38.6695 104.141 38.4818C103.878 38.2941 103.558 38.1418 103.18 38.0267C102.803 37.9117 102.426 37.7971 102.048 37.682C101.671 37.5669 101.35 37.3609 101.087 37.0652C100.824 36.7695 100.692 36.3824 100.692 35.9042C100.692 35.3317 100.905 34.853 101.331 34.4687C101.757 34.0839 102.294 33.8915 102.944 33.8915C103.479 33.8915 103.949 34.0207 104.352 34.2787C104.756 34.5366 105.054 34.8865 105.247 35.3275L104.523 35.7778C104.269 35.1209 103.742 34.7927 102.943 34.7927C102.566 34.7927 102.241 34.8865 101.969 35.0766C101.697 35.2666 101.561 35.5364 101.561 35.8863V35.8853Z" fill="#065DA7"/>
<path fill-rule="evenodd" clip-rule="evenodd" d="M115.949 17.5316L130.098 1.10499C130.49 0.649929 131.181 0.598528 131.636 0.990402L133.587 2.6706C134.027 3.04975 134.092 3.70523 133.737 4.16406C127.656 12.0072 128.903 22.5751 135.703 29.643C136.094 30.049 136.111 30.6809 135.744 31.1091L134.151 32.9628C133.947 33.2 133.682 33.3278 133.37 33.341C133.057 33.3537 132.783 33.2486 132.56 33.0293C128.358 28.8983 125.675 24.0204 124.935 17.1525C124.888 16.7111 124.6 16.3603 124.176 16.2287C123.752 16.0967 123.315 16.2216 123.026 16.5578L119.53 20.6162C119.139 21.0712 118.448 21.1226 117.993 20.7308L116.064 19.069C115.609 18.6771 115.558 17.9867 115.949 17.5321V17.5316ZM137.928 12.7311L141.497 15.8052C141.952 16.1971 142.642 16.1457 143.034 15.6906L144.737 13.7143C145.129 13.2597 145.077 12.5688 144.622 12.1774L136.142 4.87236C135.895 4.66063 135.601 4.57386 135.28 4.61866C134.958 4.66346 134.699 4.82756 134.52 5.09871C129.116 13.2988 129.686 21.448 136.53 28.3725C136.752 28.597 137.028 28.7064 137.344 28.6956C137.66 28.6847 137.927 28.556 138.133 28.316L139.668 26.5254C140.044 26.0873 140.014 25.4347 139.599 25.0329C136.137 21.6805 135.077 17.7486 136.158 13.2998C136.25 12.9206 136.512 12.6386 136.883 12.5198C137.255 12.4 137.632 12.4764 137.928 12.7315V12.7311Z" fill="#FE9800"/>
</svg>
