<svg width="130" height="33" viewBox="0 0 130 33" fill="none" xmlns="http://www.w3.org/2000/svg">
<path d="M67.8511 3.22779H65.6368V6.30056C65.6368 6.5779 65.6911 6.77568 65.7991 6.8939C65.9075 7.01212 66.0695 7.07315 66.2861 7.07634C66.5024 7.07986 66.7727 7.07474 67.0973 7.061V7.64924C66.3874 7.75755 65.855 7.70674 65.5001 7.49714C65.1451 7.28754 64.9678 6.88879 64.9678 6.30056V3.22779H63.9028V2.57852H64.9678V0.607432L65.6368 0.601363V2.57852H67.8511V3.22779ZM86.2555 7.53549C85.8903 7.37509 85.5666 7.12204 85.3094 6.81786V7.64924H84.64V0.550238H85.3094V3.46262C85.8523 2.82071 86.5031 2.45678 87.3578 2.45678C88.0815 2.45678 88.6985 2.71369 89.2088 3.22779C89.7194 3.74157 89.9746 4.37037 89.9746 5.11421C89.9746 5.85804 89.7194 6.48683 89.2088 7.00061C88.4758 7.73869 87.2064 7.99974 86.2555 7.5358V7.53549ZM85.9379 6.53987C86.3149 6.92169 86.7782 7.11277 87.3275 7.11277C87.8767 7.11277 88.34 6.92169 88.717 6.53987C89.0941 6.15805 89.2826 5.69157 89.2826 5.1404C89.2826 4.58924 89.0941 4.12275 88.717 3.74093C88.34 3.35911 87.8767 3.16803 87.3275 3.16803C86.7782 3.16803 86.3149 3.35911 85.9379 3.74093C85.5609 4.12275 85.3723 4.58924 85.3723 5.1404C85.3723 5.69157 85.5609 6.15805 85.9379 6.53987ZM69.8711 2.45678C70.4864 2.45678 70.9715 2.64434 71.3264 3.01977C71.6814 3.39489 71.8591 3.90036 71.8591 4.53588V7.64924H71.1897V4.53588C71.1897 4.08281 71.0699 3.73133 70.8299 3.48115C70.59 3.23097 70.25 3.10605 69.8107 3.10605C69.324 3.10605 68.9285 3.25973 68.6243 3.56743C68.3201 3.87512 68.168 4.34992 68.168 4.99214V7.64924H67.4987V0.550238H68.168V3.36965C68.5466 2.76129 69.1144 2.45678 69.8717 2.45678H69.8711ZM73.1109 3.42014C73.4218 2.80475 73.9557 2.49736 74.7133 2.49736V3.1463C74.2535 3.1463 73.8714 3.28146 73.5672 3.55209C73.263 3.8224 73.1109 4.24831 73.1109 4.82983V7.64924H72.4415V2.57852H73.1109V3.42045V3.42014ZM75.59 2.08775C75.4955 2.18233 75.3804 2.22994 75.2453 2.22994C75.1101 2.22994 74.9951 2.18265 74.9005 2.08775C74.806 1.99317 74.7587 1.87815 74.7587 1.74299C74.7587 1.60784 74.806 1.49282 74.9005 1.39792C74.9951 1.30334 75.1101 1.25606 75.2453 1.25606C75.3804 1.25606 75.4955 1.30334 75.59 1.39792C75.6846 1.4925 75.7319 1.60752 75.7319 1.74299C75.7319 1.87815 75.6846 1.99317 75.59 2.08775ZM74.9108 7.64924V2.57852H75.5802V7.64924H74.9108ZM78.8197 1.07744C78.3264 1.03686 77.9593 1.12154 77.7193 1.33082C77.4794 1.54042 77.3592 1.88869 77.3592 2.37531V2.57821H78.8194V3.22746H77.3592V7.64924H76.6898V3.22746H75.8278V2.57821H76.6898V2.37531C76.6898 1.71296 76.8739 1.211 77.2426 0.869441C77.611 0.527879 78.1369 0.3809 78.8194 0.428188V1.07713L78.8197 1.07744ZM81.7046 3.22746H80.2444V6.30024C80.2444 6.57758 80.2984 6.77537 80.4067 6.89359C80.5151 7.01181 80.6771 7.07283 80.8937 7.07603C81.11 7.07954 81.3803 7.07443 81.705 7.06069V7.64891C80.995 7.75723 80.4627 7.70643 80.1077 7.49683C79.7527 7.28723 79.5751 6.88846 79.5751 6.30024V3.22746H78.5101V2.57821H79.5751V0.443836L80.2444 0.449593V2.57852H81.7046V3.22779V3.22746ZM93.8232 2.57821H94.5332L92.3627 8.11573C92.1665 8.61609 91.8876 9.00974 91.5259 9.2973C91.1642 9.58455 90.76 9.71139 90.314 9.67752V9.04871C90.9207 9.11613 91.384 8.76466 91.7 7.99239L91.8285 7.66616L89.5634 2.57852H90.2734L92.1716 6.7907L93.8232 2.57852V2.57821Z" fill="#065DA7"/>
<path fill-rule="evenodd" clip-rule="evenodd" d="M83.7149 21.5775L87.2704 17.4497C87.3689 17.3356 87.5423 17.3225 87.6567 17.4209L88.1469 17.8433C88.2574 17.9386 88.2737 18.1031 88.1846 18.2184C86.6566 20.1895 86.9698 22.845 88.6785 24.6209C88.7766 24.7231 88.7811 24.8819 88.6888 24.9893L88.2884 25.4552C88.2373 25.5146 88.1708 25.5469 88.0922 25.5504C88.0136 25.5536 87.9449 25.527 87.8887 25.4721C86.8327 24.434 86.1585 23.2083 85.9729 21.4826C85.9611 21.3717 85.8885 21.2836 85.7818 21.2503C85.6754 21.2171 85.5658 21.2484 85.493 21.3331L84.6146 22.353C84.5162 22.4671 84.3427 22.4801 84.2283 22.3817L83.7436 21.9641C83.6292 21.8657 83.6165 21.6922 83.7149 21.5778V21.5775ZM89.2377 20.371L90.1346 21.1436C90.2486 21.242 90.4221 21.2289 90.5209 21.1149L90.9487 20.618C91.0471 20.5039 91.0343 20.3301 90.9199 20.2317L88.7891 18.3961C88.7271 18.3427 88.6533 18.321 88.5725 18.3322C88.4916 18.3434 88.4264 18.3846 88.3817 18.4526C87.0238 20.5132 87.1669 22.561 88.8869 24.3011C88.9425 24.3576 89.0118 24.3851 89.0913 24.3822C89.1706 24.3793 89.238 24.3471 89.2894 24.287L89.6754 23.8371C89.77 23.7272 89.7623 23.563 89.6582 23.462C88.7881 22.6195 88.5216 21.6315 88.7932 20.5135C88.8162 20.4183 88.8821 20.3474 88.9757 20.3177C89.0693 20.2876 89.1639 20.3068 89.238 20.371H89.2377Z" fill="#FE9800"/>
<path d="M13.4187 13.2631H7.28431V26.2159C7.28431 27.3844 7.51149 28.218 7.96584 28.7168C8.42019 29.2156 9.10204 29.4718 10.0107 29.4862C10.9194 29.5006 12.0556 29.4792 13.419 29.4223V31.9017C10.437 32.3577 8.20037 32.1439 6.70951 31.2604C5.21865 30.377 4.47291 28.6954 4.47291 26.2159V13.2631H0V10.5271H4.47291V5.39726L7.28464 4.54224V10.5271H13.419L13.4187 13.2631ZM26.0626 10.0143C28.6468 10.0143 30.6847 10.8051 32.1755 12.387C33.6667 13.9686 34.4122 16.0988 34.4122 18.7779V31.9017H31.6004V18.7779C31.6004 16.8685 31.0962 15.3866 30.0881 14.3319C29.0798 13.2775 27.6528 12.7503 25.8069 12.7503C23.762 12.7503 22.1009 13.3986 20.8228 14.6955C19.5448 15.9921 18.9057 17.9942 18.9057 20.7017V31.902H16.094V1.97813H18.9057V13.8622C20.4963 11.2971 22.8818 10.0143 26.0626 10.0143ZM40.6663 14.0753C41.9728 11.4818 44.2162 10.1852 47.3973 10.1852V12.9212C45.4661 12.9212 43.8615 13.4912 42.5834 14.6313C41.3054 15.7713 40.6663 17.5666 40.6663 20.0177V31.9017H37.8546V10.5274H40.6663V14.0753ZM52.075 5.39726C51.6775 5.79634 51.1944 5.99571 50.6266 5.99571C50.0585 5.99571 49.5757 5.79634 49.1782 5.39726C48.7808 4.99819 48.582 4.51381 48.582 3.94379C48.582 3.37378 48.7808 2.88938 49.1782 2.49031C49.5757 2.09123 50.0588 1.89186 50.6266 1.89186C51.1947 1.89186 51.6775 2.09123 52.075 2.49031C52.4724 2.88906 52.6715 3.37378 52.6715 3.94379C52.6715 4.51381 52.4728 4.99819 52.075 5.39726ZM49.2207 31.9014V10.5271H52.0325V31.9014H49.2207ZM65.9544 10.0139C68.5386 10.0139 70.5765 10.8047 72.0674 12.3867C73.5586 13.9683 74.304 16.0985 74.304 18.7776V31.9014H71.4923V18.7776C71.4923 16.8682 70.9881 15.3863 69.98 14.3316C68.9716 13.2772 67.5446 12.75 65.6988 12.75C63.6539 12.75 61.9927 13.3982 60.7147 14.6952C59.4366 15.9918 58.7976 17.9938 58.7976 20.7014V31.9017H55.9858V10.5274H58.7976V13.8619C60.3881 11.2968 62.7736 10.0139 65.9544 10.0139ZM96.0643 1.97717H98.876V31.9011H96.0643V27.7116C94.1047 30.8464 91.2364 32.4139 87.4591 32.4139C84.4205 32.4139 81.8289 31.3311 79.6846 29.1651C77.5403 26.9991 76.4684 24.3487 76.4684 21.2139C76.4684 18.0791 77.5407 15.4285 79.6846 13.2628C81.8289 11.0968 84.4205 10.0139 87.4591 10.0139C91.2364 10.0139 94.1047 11.5815 96.0643 14.7163V1.97717ZM81.7081 27.2202C83.3268 28.859 85.3148 29.6782 87.6719 29.6782C90.0293 29.6782 92.0173 28.8586 93.636 27.2202C95.2546 25.5817 96.0639 23.5796 96.0639 21.2139C96.0639 18.8485 95.2546 16.8465 93.636 15.2077C92.017 13.5689 90.0289 12.7496 87.6719 12.7496C85.3148 12.7496 83.3268 13.5692 81.7081 15.2077C80.0891 16.8461 79.2798 18.8482 79.2798 21.2139C79.2798 23.5793 80.0891 25.5814 81.7081 27.2202ZM102.829 31.9011V0.694641H105.641V31.9011H102.829ZM119.435 10.0136C122.588 10.0136 125.137 11.1323 127.082 13.3695C129.027 15.6067 130 18.2498 130 21.2996C130 21.613 129.972 22.0546 129.915 22.6246H111.213C111.498 24.7906 112.414 26.5077 113.961 27.7758C115.509 29.044 117.419 29.6782 119.691 29.6782C121.31 29.6782 122.708 29.3434 123.887 28.6737C125.066 28.0039 125.953 27.1275 126.55 26.0447L129.02 27.4982C128.083 29.0088 126.805 30.2057 125.186 31.0892C123.567 31.9727 121.721 32.4145 119.648 32.4145C116.297 32.4145 113.571 31.3601 111.469 29.251C109.368 27.1422 108.317 24.4631 108.317 21.2142C108.317 18.0223 109.354 15.3575 111.427 13.2203C113.5 11.083 116.169 10.0136 119.435 10.0136ZM119.435 12.7496C117.22 12.7496 115.367 13.4123 113.876 14.7373C112.385 16.0627 111.498 17.7798 111.213 19.8886H127.103C126.819 17.6373 125.953 15.8844 124.504 14.6306C123.056 13.3765 121.367 12.7496 119.435 12.7496Z" fill="#065DA7"/>
</svg>
