<svg width="34" height="36" viewBox="0 0 34 36" fill="none" xmlns="http://www.w3.org/2000/svg">
<path fill-rule="evenodd" clip-rule="evenodd" d="M0.669826 18.5487L16.8597 0.417168C17.3081 -0.0851259 18.0981 -0.141861 18.6187 0.290684L20.851 2.14527C21.3544 2.56376 21.4294 3.28727 21.0225 3.79373C14.0653 12.4509 15.4914 24.1156 23.272 31.917C23.7199 32.3652 23.7398 33.0626 23.319 33.5353L21.4963 35.5814C21.2632 35.8432 20.9605 35.9843 20.6028 35.9989C20.245 36.0129 19.9315 35.8968 19.6763 35.6548C14.8682 31.0951 11.7985 25.7109 10.9519 18.1302C10.898 17.643 10.5683 17.2557 10.0827 17.1105C9.59814 16.9648 9.09851 17.1027 8.76721 17.4738L4.76734 21.9534C4.3195 22.4557 3.52957 22.5124 3.00888 22.0798L0.800939 20.2456C0.28079 19.813 0.22198 19.051 0.669826 18.5492V18.5487ZM25.8183 13.2499L29.9023 16.6431C30.4225 17.0756 31.2124 17.0189 31.6608 16.5166L33.6092 14.3351C34.0575 13.8334 33.9982 13.0708 33.4781 12.6388L23.7744 4.57554C23.4927 4.34183 23.156 4.24606 22.788 4.29551C22.42 4.34495 22.1233 4.52609 21.9193 4.82539C15.7358 13.8766 16.3876 22.8715 24.2184 30.5147C24.4726 30.7625 24.7882 30.8833 25.1497 30.8713C25.5113 30.8593 25.8172 30.7172 26.0524 30.4523L27.8098 28.4759C28.2399 27.9923 28.2053 27.272 27.7305 26.8285C23.7695 23.1282 22.556 18.7881 23.7927 13.8776C23.8985 13.4591 24.1979 13.1479 24.6231 13.0167C25.0483 12.8845 25.4794 12.9688 25.8183 13.2504V13.2499Z" fill="#FE9800"/>
</svg>
