<svg width="254" height="195" viewBox="0 0 254 195" fill="none" xmlns="http://www.w3.org/2000/svg">
<path fill-rule="evenodd" clip-rule="evenodd" d="M-43.3123 165.663L101.284 3.72584C105.289 -0.760282 112.344 -1.267 116.994 2.59618L136.931 19.16C141.427 22.8976 142.097 29.3595 138.463 33.8828C76.326 111.202 89.0628 215.383 158.554 285.059C162.554 289.062 162.732 295.291 158.973 299.513L142.694 317.787C140.613 320.125 137.909 321.385 134.714 321.515C131.519 321.641 128.719 320.604 126.44 318.443C83.4969 277.719 56.081 229.631 48.5199 161.926C48.038 157.574 45.0936 154.116 40.7564 152.819C36.4289 151.517 31.9665 152.749 29.0076 156.063L-6.71629 196.071C-10.7161 200.557 -17.7712 201.064 -22.4216 197.201L-42.1413 180.819C-46.7869 176.955 -47.3121 170.149 -43.3123 165.668V165.663ZM181.295 118.338L217.771 148.644C222.416 152.507 229.471 152 233.476 147.514L250.878 128.031C254.882 123.55 254.352 116.739 249.707 112.88L163.04 40.8654C160.525 38.7781 157.518 37.9227 154.231 38.3643C150.945 38.8059 148.294 40.4237 146.473 43.0968C91.2459 123.935 97.0673 204.272 167.007 272.535C169.276 274.748 172.096 275.827 175.324 275.72C178.553 275.613 181.286 274.344 183.387 271.977L199.082 254.326C202.923 250.007 202.615 243.573 198.374 239.612C162.997 206.564 152.159 167.802 163.204 123.945C164.149 120.207 166.823 117.427 170.621 116.256C174.418 115.075 178.269 115.828 181.295 118.343V118.338Z" fill="white" fill-opacity="0.1"/>
</svg>
